{
 "cells": [
  {
   "cell_type": "markdown",
   "id": "5823d871",
   "metadata": {},
   "source": [
    "Objectif : découper les pistes audio MP3 en extraits de 10 secondes"
   ]
  },
  {
   "cell_type": "code",
   "execution_count": 5,
   "id": "9c023627",
   "metadata": {},
   "outputs": [
    {
     "name": "stderr",
     "output_type": "stream",
     "text": [
      "ffmpeg version 8.0.1 Copyright (c) 2000-2025 the FFmpeg developers\n",
      "  built with Apple clang version 17.0.0 (clang-1700.4.4.1)\n",
      "  configuration: --prefix=/opt/homebrew/Cellar/ffmpeg/8.0.1 --enable-shared --enable-pthreads --enable-version3 --cc=clang --host-cflags= --host-ldflags= --enable-ffplay --enable-gnutls --enable-gpl --enable-libaom --enable-libaribb24 --enable-libbluray --enable-libdav1d --enable-libharfbuzz --enable-libjxl --enable-libmp3lame --enable-libopus --enable-librav1e --enable-librist --enable-librubberband --enable-libsnappy --enable-libsrt --enable-libssh --enable-libsvtav1 --enable-libtesseract --enable-libtheora --enable-libvidstab --enable-libvmaf --enable-libvorbis --enable-libvpx --enable-libwebp --enable-libx264 --enable-libx265 --enable-libxml2 --enable-libxvid --enable-lzma --enable-libfontconfig --enable-libfreetype --enable-frei0r --enable-libass --enable-libopencore-amrnb --enable-libopencore-amrwb --enable-libopenjpeg --enable-libspeex --enable-libsoxr --enable-libzmq --enable-libzimg --disable-libjack --disable-indev=jack --enable-videotoolbox --enable-audiotoolbox --enable-neon\n",
      "  libavutil      60.  8.100 / 60.  8.100\n",
      "  libavcodec     62. 11.100 / 62. 11.100\n",
      "  libavformat    62.  3.100 / 62.  3.100\n",
      "  libavdevice    62.  1.100 / 62.  1.100\n",
      "  libavfilter    11.  4.100 / 11.  4.100\n",
      "  libswscale      9.  1.100 /  9.  1.100\n",
      "  libswresample   6.  1.100 /  6.  1.100\n",
      "Input #0, mp3, from '../Audios/Original_files/Rabbit And Crow | One Minute Story | Childenzia English Story.mp3':\n",
      "  Metadata:\n",
      "    title           : Rabbit And Crow | One Minute Story | Short Moral Story | English Story | Kids Story\n",
      "    artist          : Childrenia\n",
      "    album           : Rabbit And Crow | One Minute Story | Short Moral Story | English Story | Kids Story\n",
      "    TOPE            : Childrenia\n",
      "    comment         : \n",
      "    genre           : Music\n",
      "    date            : 2025\n",
      "  Duration: 00:00:49.20, start: 0.025056, bitrate: 94 kb/s\n",
      "  Stream #0:0: Audio: mp3 (mp3float), 44100 Hz, stereo, fltp, 66 kb/s, start 0.025057\n",
      "    Metadata:\n",
      "      encoder         : Lavc59.37\n",
      "  Stream #0:1: Video: png, rgba(pc, gbr/unknown/unknown), 500x500 [SAR 3780:3780 DAR 1:1], 90k tbr, 90k tbn, start 0.025056 (attached pic)\n",
      "    Metadata:\n",
      "      title           : cover\n",
      "      comment         : Cover (front)\n",
      "Stream mapping:\n",
      "  Stream #0:1 -> #0:0 (copy)\n",
      "  Stream #0:0 -> #0:1 (copy)\n",
      "Output #0, mp3, to '../Audios/Splited_files/Rabbit And Crow | One Minute Story | Childenzia English Story_part1.mp3':\n",
      "  Metadata:\n",
      "    TIT2            : Rabbit And Crow | One Minute Story | Short Moral Story | English Story | Kids Story\n",
      "    TPE1            : Childrenia\n",
      "    TALB            : Rabbit And Crow | One Minute Story | Short Moral Story | English Story | Kids Story\n",
      "    TOPE            : Childrenia\n",
      "    comment         : \n",
      "    TCON            : Music\n",
      "    TDRC            : 2025\n",
      "    TSSE            : Lavf62.3.100\n",
      "  Stream #0:0: Video: png, rgba(pc, gbr/unknown/unknown), 500x500 [SAR 3780:3780 DAR 1:1], q=2-31, 90k tbr, 90k tbn (attached pic)\n",
      "    Metadata:\n",
      "      title           : cover\n",
      "      comment         : Cover (front)\n",
      "  Stream #0:1: Audio: mp3, 44100 Hz, stereo, fltp, 66 kb/s\n",
      "    Metadata:\n",
      "      encoder         : Lavc59.37\n",
      "Press [q] to stop, [?] for help\n",
      "[out#0/mp3 @ 0xa0ac14480] video:167KiB audio:83KiB subtitle:0KiB other streams:0KiB global headers:0KiB muxing overhead: 0.221062%\n",
      "frame=    1 fps=0.0 q=-1.0 Lsize=     251KiB time=N/A bitrate=N/A speed=N/A elapsed=0:00:00.00    \n",
      "ffmpeg version 8.0.1 Copyright (c) 2000-2025 the FFmpeg developers\n",
      "  built with Apple clang version 17.0.0 (clang-1700.4.4.1)\n",
      "  configuration: --prefix=/opt/homebrew/Cellar/ffmpeg/8.0.1 --enable-shared --enable-pthreads --enable-version3 --cc=clang --host-cflags= --host-ldflags= --enable-ffplay --enable-gnutls --enable-gpl --enable-libaom --enable-libaribb24 --enable-libbluray --enable-libdav1d --enable-libharfbuzz --enable-libjxl --enable-libmp3lame --enable-libopus --enable-librav1e --enable-librist --enable-librubberband --enable-libsnappy --enable-libsrt --enable-libssh --enable-libsvtav1 --enable-libtesseract --enable-libtheora --enable-libvidstab --enable-libvmaf --enable-libvorbis --enable-libvpx --enable-libwebp --enable-libx264 --enable-libx265 --enable-libxml2 --enable-libxvid --enable-lzma --enable-libfontconfig --enable-libfreetype --enable-frei0r --enable-libass --enable-libopencore-amrnb --enable-libopencore-amrwb --enable-libopenjpeg --enable-libspeex --enable-libsoxr --enable-libzmq --enable-libzimg --disable-libjack --disable-indev=jack --enable-videotoolbox --enable-audiotoolbox --enable-neon\n",
      "  libavutil      60.  8.100 / 60.  8.100\n",
      "  libavcodec     62. 11.100 / 62. 11.100\n",
      "  libavformat    62.  3.100 / 62.  3.100\n",
      "  libavdevice    62.  1.100 / 62.  1.100\n",
      "  libavfilter    11.  4.100 / 11.  4.100\n",
      "  libswscale      9.  1.100 /  9.  1.100\n",
      "  libswresample   6.  1.100 /  6.  1.100\n",
      "Input #0, mp3, from '../Audios/Original_files/Rabbit And Crow | One Minute Story | Childenzia English Story.mp3':\n",
      "  Metadata:\n",
      "    title           : Rabbit And Crow | One Minute Story | Short Moral Story | English Story | Kids Story\n",
      "    artist          : Childrenia\n",
      "    album           : Rabbit And Crow | One Minute Story | Short Moral Story | English Story | Kids Story\n",
      "    TOPE            : Childrenia\n",
      "    comment         : \n",
      "    genre           : Music\n",
      "    date            : 2025\n",
      "  Duration: 00:00:49.20, start: 0.025056, bitrate: 94 kb/s\n",
      "  Stream #0:0: Audio: mp3 (mp3float), 44100 Hz, stereo, fltp, 66 kb/s, start 0.025057\n",
      "    Metadata:\n",
      "      encoder         : Lavc59.37\n",
      "  Stream #0:1: Video: png, rgba(pc, gbr/unknown/unknown), 500x500 [SAR 3780:3780 DAR 1:1], 90k tbr, 90k tbn, start 0.025056 (attached pic)\n",
      "    Metadata:\n",
      "      title           : cover\n",
      "      comment         : Cover (front)\n",
      "Stream mapping:\n",
      "  Stream #0:1 -> #0:0 (copy)\n",
      "  Stream #0:0 -> #0:1 (copy)\n",
      "Output #0, mp3, to '../Audios/Splited_files/Rabbit And Crow | One Minute Story | Childenzia English Story_part2.mp3':\n",
      "  Metadata:\n",
      "    TIT2            : Rabbit And Crow | One Minute Story | Short Moral Story | English Story | Kids Story\n",
      "    TPE1            : Childrenia\n",
      "    TALB            : Rabbit And Crow | One Minute Story | Short Moral Story | English Story | Kids Story\n",
      "    TOPE            : Childrenia\n",
      "    comment         : \n",
      "    TCON            : Music\n",
      "    TDRC            : 2025\n",
      "    TSSE            : Lavf62.3.100\n",
      "  Stream #0:0: Video: png, rgba(pc, gbr/unknown/unknown), 500x500 [SAR 3780:3780 DAR 1:1], q=2-31, 90k tbr, 90k tbn (attached pic)\n",
      "    Metadata:\n",
      "      title           : cover\n",
      "      comment         : Cover (front)\n",
      "  Stream #0:1: Audio: mp3, 44100 Hz, stereo, fltp, 66 kb/s\n",
      "    Metadata:\n",
      "      encoder         : Lavc59.37\n",
      "Press [q] to stop, [?] for help\n",
      "[mp3 @ 0x8e903c280] No packets were sent for some of the attached pictures.\n",
      "[out#0/mp3 @ 0x8e9031bc0] video:0KiB audio:96KiB subtitle:0KiB other streams:0KiB global headers:0KiB muxing overhead: 0.545828%\n",
      "frame=    0 fps=0.0 q=-1.0 Lsize=      97KiB time=N/A bitrate=N/A speed=N/A elapsed=0:00:00.00    \n",
      "ffmpeg version 8.0.1 Copyright (c) 2000-2025 the FFmpeg developers\n",
      "  built with Apple clang version 17.0.0 (clang-1700.4.4.1)\n",
      "  configuration: --prefix=/opt/homebrew/Cellar/ffmpeg/8.0.1 --enable-shared --enable-pthreads --enable-version3 --cc=clang --host-cflags= --host-ldflags= --enable-ffplay --enable-gnutls --enable-gpl --enable-libaom --enable-libaribb24 --enable-libbluray --enable-libdav1d --enable-libharfbuzz --enable-libjxl --enable-libmp3lame --enable-libopus --enable-librav1e --enable-librist --enable-librubberband --enable-libsnappy --enable-libsrt --enable-libssh --enable-libsvtav1 --enable-libtesseract --enable-libtheora --enable-libvidstab --enable-libvmaf --enable-libvorbis --enable-libvpx --enable-libwebp --enable-libx264 --enable-libx265 --enable-libxml2 --enable-libxvid --enable-lzma --enable-libfontconfig --enable-libfreetype --enable-frei0r --enable-libass --enable-libopencore-amrnb --enable-libopencore-amrwb --enable-libopenjpeg --enable-libspeex --enable-libsoxr --enable-libzmq --enable-libzimg --disable-libjack --disable-indev=jack --enable-videotoolbox --enable-audiotoolbox --enable-neon\n",
      "  libavutil      60.  8.100 / 60.  8.100\n",
      "  libavcodec     62. 11.100 / 62. 11.100\n",
      "  libavformat    62.  3.100 / 62.  3.100\n",
      "  libavdevice    62.  1.100 / 62.  1.100\n",
      "  libavfilter    11.  4.100 / 11.  4.100\n",
      "  libswscale      9.  1.100 /  9.  1.100\n",
      "  libswresample   6.  1.100 /  6.  1.100\n",
      "Input #0, mp3, from '../Audios/Original_files/Rabbit And Crow | One Minute Story | Childenzia English Story.mp3':\n",
      "  Metadata:\n",
      "    title           : Rabbit And Crow | One Minute Story | Short Moral Story | English Story | Kids Story\n",
      "    artist          : Childrenia\n",
      "    album           : Rabbit And Crow | One Minute Story | Short Moral Story | English Story | Kids Story\n",
      "    TOPE            : Childrenia\n",
      "    comment         : \n",
      "    genre           : Music\n",
      "    date            : 2025\n",
      "  Duration: 00:00:49.20, start: 0.025056, bitrate: 94 kb/s\n",
      "  Stream #0:0: Audio: mp3 (mp3float), 44100 Hz, stereo, fltp, 66 kb/s, start 0.025057\n",
      "    Metadata:\n",
      "      encoder         : Lavc59.37\n",
      "  Stream #0:1: Video: png, rgba(pc, gbr/unknown/unknown), 500x500 [SAR 3780:3780 DAR 1:1], 90k tbr, 90k tbn, start 0.025056 (attached pic)\n",
      "    Metadata:\n",
      "      title           : cover\n",
      "      comment         : Cover (front)\n",
      "Stream mapping:\n",
      "  Stream #0:1 -> #0:0 (copy)\n",
      "  Stream #0:0 -> #0:1 (copy)\n",
      "Output #0, mp3, to '../Audios/Splited_files/Rabbit And Crow | One Minute Story | Childenzia English Story_part3.mp3':\n",
      "  Metadata:\n",
      "    TIT2            : Rabbit And Crow | One Minute Story | Short Moral Story | English Story | Kids Story\n",
      "    TPE1            : Childrenia\n",
      "    TALB            : Rabbit And Crow | One Minute Story | Short Moral Story | English Story | Kids Story\n",
      "    TOPE            : Childrenia\n",
      "    comment         : \n",
      "    TCON            : Music\n",
      "    TDRC            : 2025\n",
      "    TSSE            : Lavf62.3.100\n",
      "  Stream #0:0: Video: png, rgba(pc, gbr/unknown/unknown), 500x500 [SAR 3780:3780 DAR 1:1], q=2-31, 90k tbr, 90k tbn (attached pic)\n",
      "    Metadata:\n",
      "      title           : cover\n",
      "      comment         : Cover (front)\n",
      "  Stream #0:1: Audio: mp3, 44100 Hz, stereo, fltp, 66 kb/s\n",
      "    Metadata:\n",
      "      encoder         : Lavc59.37\n",
      "Press [q] to stop, [?] for help\n",
      "[mp3 @ 0xb5b044280] No packets were sent for some of the attached pictures.\n",
      "[out#0/mp3 @ 0xb5ac28fc0] video:0KiB audio:98KiB subtitle:0KiB other streams:0KiB global headers:0KiB muxing overhead: 0.538849%\n",
      "frame=    0 fps=0.0 q=-1.0 Lsize=      98KiB time=N/A bitrate=N/A speed=N/A elapsed=0:00:00.00    \n",
      "ffmpeg version 8.0.1 Copyright (c) 2000-2025 the FFmpeg developers\n",
      "  built with Apple clang version 17.0.0 (clang-1700.4.4.1)\n",
      "  configuration: --prefix=/opt/homebrew/Cellar/ffmpeg/8.0.1 --enable-shared --enable-pthreads --enable-version3 --cc=clang --host-cflags= --host-ldflags= --enable-ffplay --enable-gnutls --enable-gpl --enable-libaom --enable-libaribb24 --enable-libbluray --enable-libdav1d --enable-libharfbuzz --enable-libjxl --enable-libmp3lame --enable-libopus --enable-librav1e --enable-librist --enable-librubberband --enable-libsnappy --enable-libsrt --enable-libssh --enable-libsvtav1 --enable-libtesseract --enable-libtheora --enable-libvidstab --enable-libvmaf --enable-libvorbis --enable-libvpx --enable-libwebp --enable-libx264 --enable-libx265 --enable-libxml2 --enable-libxvid --enable-lzma --enable-libfontconfig --enable-libfreetype --enable-frei0r --enable-libass --enable-libopencore-amrnb --enable-libopencore-amrwb --enable-libopenjpeg --enable-libspeex --enable-libsoxr --enable-libzmq --enable-libzimg --disable-libjack --disable-indev=jack --enable-videotoolbox --enable-audiotoolbox --enable-neon\n",
      "  libavutil      60.  8.100 / 60.  8.100\n",
      "  libavcodec     62. 11.100 / 62. 11.100\n",
      "  libavformat    62.  3.100 / 62.  3.100\n",
      "  libavdevice    62.  1.100 / 62.  1.100\n",
      "  libavfilter    11.  4.100 / 11.  4.100\n",
      "  libswscale      9.  1.100 /  9.  1.100\n",
      "  libswresample   6.  1.100 /  6.  1.100\n",
      "Input #0, mp3, from '../Audios/Original_files/Rabbit And Crow | One Minute Story | Childenzia English Story.mp3':\n",
      "  Metadata:\n",
      "    title           : Rabbit And Crow | One Minute Story | Short Moral Story | English Story | Kids Story\n",
      "    artist          : Childrenia\n",
      "    album           : Rabbit And Crow | One Minute Story | Short Moral Story | English Story | Kids Story\n",
      "    TOPE            : Childrenia\n",
      "    comment         : \n",
      "    genre           : Music\n",
      "    date            : 2025\n",
      "  Duration: 00:00:49.20, start: 0.025056, bitrate: 94 kb/s\n",
      "  Stream #0:0: Audio: mp3 (mp3float), 44100 Hz, stereo, fltp, 66 kb/s, start 0.025057\n",
      "    Metadata:\n",
      "      encoder         : Lavc59.37\n",
      "  Stream #0:1: Video: png, rgba(pc, gbr/unknown/unknown), 500x500 [SAR 3780:3780 DAR 1:1], 90k tbr, 90k tbn, start 0.025056 (attached pic)\n",
      "    Metadata:\n",
      "      title           : cover\n",
      "      comment         : Cover (front)\n",
      "Stream mapping:\n",
      "  Stream #0:1 -> #0:0 (copy)\n",
      "  Stream #0:0 -> #0:1 (copy)\n",
      "Output #0, mp3, to '../Audios/Splited_files/Rabbit And Crow | One Minute Story | Childenzia English Story_part4.mp3':\n",
      "  Metadata:\n",
      "    TIT2            : Rabbit And Crow | One Minute Story | Short Moral Story | English Story | Kids Story\n",
      "    TPE1            : Childrenia\n",
      "    TALB            : Rabbit And Crow | One Minute Story | Short Moral Story | English Story | Kids Story\n",
      "    TOPE            : Childrenia\n",
      "    comment         : \n",
      "    TCON            : Music\n",
      "    TDRC            : 2025\n",
      "    TSSE            : Lavf62.3.100\n",
      "  Stream #0:0: Video: png, rgba(pc, gbr/unknown/unknown), 500x500 [SAR 3780:3780 DAR 1:1], q=2-31, 90k tbr, 90k tbn (attached pic)\n",
      "    Metadata:\n",
      "      title           : cover\n",
      "      comment         : Cover (front)\n",
      "  Stream #0:1: Audio: mp3, 44100 Hz, stereo, fltp, 66 kb/s\n",
      "    Metadata:\n",
      "      encoder         : Lavc59.37\n",
      "Press [q] to stop, [?] for help\n",
      "[mp3 @ 0x755038280] No packets were sent for some of the attached pictures.\n",
      "[out#0/mp3 @ 0x75502dbc0] video:0KiB audio:88KiB subtitle:0KiB other streams:0KiB global headers:0KiB muxing overhead: 0.600330%\n",
      "frame=    0 fps=0.0 q=-1.0 Lsize=      88KiB time=N/A bitrate=N/A speed=N/A elapsed=0:00:00.00    \n",
      "ffmpeg version 8.0.1 Copyright (c) 2000-2025 the FFmpeg developers\n",
      "  built with Apple clang version 17.0.0 (clang-1700.4.4.1)\n",
      "  configuration: --prefix=/opt/homebrew/Cellar/ffmpeg/8.0.1 --enable-shared --enable-pthreads --enable-version3 --cc=clang --host-cflags= --host-ldflags= --enable-ffplay --enable-gnutls --enable-gpl --enable-libaom --enable-libaribb24 --enable-libbluray --enable-libdav1d --enable-libharfbuzz --enable-libjxl --enable-libmp3lame --enable-libopus --enable-librav1e --enable-librist --enable-librubberband --enable-libsnappy --enable-libsrt --enable-libssh --enable-libsvtav1 --enable-libtesseract --enable-libtheora --enable-libvidstab --enable-libvmaf --enable-libvorbis --enable-libvpx --enable-libwebp --enable-libx264 --enable-libx265 --enable-libxml2 --enable-libxvid --enable-lzma --enable-libfontconfig --enable-libfreetype --enable-frei0r --enable-libass --enable-libopencore-amrnb --enable-libopencore-amrwb --enable-libopenjpeg --enable-libspeex --enable-libsoxr --enable-libzmq --enable-libzimg --disable-libjack --disable-indev=jack --enable-videotoolbox --enable-audiotoolbox --enable-neon\n",
      "  libavutil      60.  8.100 / 60.  8.100\n",
      "  libavcodec     62. 11.100 / 62. 11.100\n",
      "  libavformat    62.  3.100 / 62.  3.100\n",
      "  libavdevice    62.  1.100 / 62.  1.100\n",
      "  libavfilter    11.  4.100 / 11.  4.100\n",
      "  libswscale      9.  1.100 /  9.  1.100\n",
      "  libswresample   6.  1.100 /  6.  1.100\n",
      "Input #0, mp3, from '../Audios/Original_files/Rabbit And Crow | One Minute Story | Childenzia English Story.mp3':\n",
      "  Metadata:\n",
      "    title           : Rabbit And Crow | One Minute Story | Short Moral Story | English Story | Kids Story\n",
      "    artist          : Childrenia\n",
      "    album           : Rabbit And Crow | One Minute Story | Short Moral Story | English Story | Kids Story\n",
      "    TOPE            : Childrenia\n",
      "    comment         : \n",
      "    genre           : Music\n",
      "    date            : 2025\n",
      "  Duration: 00:00:49.20, start: 0.025056, bitrate: 94 kb/s\n",
      "  Stream #0:0: Audio: mp3 (mp3float), 44100 Hz, stereo, fltp, 66 kb/s, start 0.025057\n",
      "    Metadata:\n",
      "      encoder         : Lavc59.37\n",
      "  Stream #0:1: Video: png, rgba(pc, gbr/unknown/unknown), 500x500 [SAR 3780:3780 DAR 1:1], 90k tbr, 90k tbn, start 0.025056 (attached pic)\n",
      "    Metadata:\n",
      "      title           : cover\n",
      "      comment         : Cover (front)\n",
      "Stream mapping:\n",
      "  Stream #0:1 -> #0:0 (copy)\n",
      "  Stream #0:0 -> #0:1 (copy)\n",
      "Output #0, mp3, to '../Audios/Splited_files/Rabbit And Crow | One Minute Story | Childenzia English Story_part5.mp3':\n",
      "  Metadata:\n",
      "    TIT2            : Rabbit And Crow | One Minute Story | Short Moral Story | English Story | Kids Story\n",
      "    TPE1            : Childrenia\n",
      "    TALB            : Rabbit And Crow | One Minute Story | Short Moral Story | English Story | Kids Story\n",
      "    TOPE            : Childrenia\n",
      "    comment         : \n",
      "    TCON            : Music\n",
      "    TDRC            : 2025\n",
      "    TSSE            : Lavf62.3.100\n",
      "  Stream #0:0: Video: png, rgba(pc, gbr/unknown/unknown), 500x500 [SAR 3780:3780 DAR 1:1], q=2-31, 90k tbr, 90k tbn (attached pic)\n",
      "    Metadata:\n",
      "      title           : cover\n",
      "      comment         : Cover (front)\n",
      "  Stream #0:1: Audio: mp3, 44100 Hz, stereo, fltp, 66 kb/s\n",
      "    Metadata:\n",
      "      encoder         : Lavc59.37\n",
      "Press [q] to stop, [?] for help\n",
      "[mp3 @ 0x845018280] No packets were sent for some of the attached pictures.\n",
      "[out#0/mp3 @ 0x844c10480] video:0KiB audio:32KiB subtitle:0KiB other streams:0KiB global headers:0KiB muxing overhead: 1.639943%\n",
      "frame=    0 fps=0.0 q=-1.0 Lsize=      33KiB time=N/A bitrate=N/A speed=N/A elapsed=0:00:00.00    \n",
      "ffmpeg version 8.0.1 Copyright (c) 2000-2025 the FFmpeg developers\n",
      "  built with Apple clang version 17.0.0 (clang-1700.4.4.1)\n",
      "  configuration: --prefix=/opt/homebrew/Cellar/ffmpeg/8.0.1 --enable-shared --enable-pthreads --enable-version3 --cc=clang --host-cflags= --host-ldflags= --enable-ffplay --enable-gnutls --enable-gpl --enable-libaom --enable-libaribb24 --enable-libbluray --enable-libdav1d --enable-libharfbuzz --enable-libjxl --enable-libmp3lame --enable-libopus --enable-librav1e --enable-librist --enable-librubberband --enable-libsnappy --enable-libsrt --enable-libssh --enable-libsvtav1 --enable-libtesseract --enable-libtheora --enable-libvidstab --enable-libvmaf --enable-libvorbis --enable-libvpx --enable-libwebp --enable-libx264 --enable-libx265 --enable-libxml2 --enable-libxvid --enable-lzma --enable-libfontconfig --enable-libfreetype --enable-frei0r --enable-libass --enable-libopencore-amrnb --enable-libopencore-amrwb --enable-libopenjpeg --enable-libspeex --enable-libsoxr --enable-libzmq --enable-libzimg --disable-libjack --disable-indev=jack --enable-videotoolbox --enable-audiotoolbox --enable-neon\n",
      "  libavutil      60.  8.100 / 60.  8.100\n",
      "  libavcodec     62. 11.100 / 62. 11.100\n",
      "  libavformat    62.  3.100 / 62.  3.100\n",
      "  libavdevice    62.  1.100 / 62.  1.100\n",
      "  libavfilter    11.  4.100 / 11.  4.100\n",
      "  libswscale      9.  1.100 /  9.  1.100\n",
      "  libswresample   6.  1.100 /  6.  1.100\n",
      "Input #0, mp3, from '../Audios/Original_files/The Goose and Its Golden Egg | Moral Stories | Animated Stories.mp3':\n",
      "  Metadata:\n",
      "    title           : The Goose and Its Golden Egg | Moral Stories | Animated Stories\n",
      "    artist          : Kids Rhymes\n",
      "    album           : The Goose and Its Golden Egg | Moral Stories | Animated Stories\n",
      "    TOPE            : Kids Rhymes\n",
      "    comment         : \n",
      "    genre           : Music\n",
      "    date            : 2025\n",
      "  Duration: 00:00:41.94, start: 0.025056, bitrate: 101 kb/s\n",
      "  Stream #0:0: Audio: mp3 (mp3float), 44100 Hz, stereo, fltp, 70 kb/s, start 0.025057\n",
      "    Metadata:\n",
      "      encoder         : Lavc59.37\n",
      "  Stream #0:1: Video: png, rgba(pc, gbr/unknown/unknown), 500x500 [SAR 3780:3780 DAR 1:1], 90k tbr, 90k tbn, start 0.025056 (attached pic)\n",
      "    Metadata:\n",
      "      title           : cover\n",
      "      comment         : Cover (front)\n",
      "Stream mapping:\n",
      "  Stream #0:1 -> #0:0 (copy)\n",
      "  Stream #0:0 -> #0:1 (copy)\n",
      "Output #0, mp3, to '../Audios/Splited_files/The Goose and Its Golden Egg | Moral Stories | Animated Stories_part1.mp3':\n",
      "  Metadata:\n",
      "    TIT2            : The Goose and Its Golden Egg | Moral Stories | Animated Stories\n",
      "    TPE1            : Kids Rhymes\n",
      "    TALB            : The Goose and Its Golden Egg | Moral Stories | Animated Stories\n",
      "    TOPE            : Kids Rhymes\n",
      "    comment         : \n",
      "    TCON            : Music\n",
      "    TDRC            : 2025\n",
      "    TSSE            : Lavf62.3.100\n",
      "  Stream #0:0: Video: png, rgba(pc, gbr/unknown/unknown), 500x500 [SAR 3780:3780 DAR 1:1], q=2-31, 90k tbr, 90k tbn (attached pic)\n",
      "    Metadata:\n",
      "      title           : cover\n",
      "      comment         : Cover (front)\n",
      "  Stream #0:1: Audio: mp3, 44100 Hz, stereo, fltp, 70 kb/s\n",
      "    Metadata:\n",
      "      encoder         : Lavc59.37\n",
      "Press [q] to stop, [?] for help\n",
      "[out#0/mp3 @ 0xb31008900] video:159KiB audio:109KiB subtitle:0KiB other streams:0KiB global headers:0KiB muxing overhead: 0.193178%\n",
      "frame=    1 fps=0.0 q=-1.0 Lsize=     268KiB time=N/A bitrate=N/A speed=N/A elapsed=0:00:00.00    \n",
      "ffmpeg version 8.0.1 Copyright (c) 2000-2025 the FFmpeg developers\n",
      "  built with Apple clang version 17.0.0 (clang-1700.4.4.1)\n",
      "  configuration: --prefix=/opt/homebrew/Cellar/ffmpeg/8.0.1 --enable-shared --enable-pthreads --enable-version3 --cc=clang --host-cflags= --host-ldflags= --enable-ffplay --enable-gnutls --enable-gpl --enable-libaom --enable-libaribb24 --enable-libbluray --enable-libdav1d --enable-libharfbuzz --enable-libjxl --enable-libmp3lame --enable-libopus --enable-librav1e --enable-librist --enable-librubberband --enable-libsnappy --enable-libsrt --enable-libssh --enable-libsvtav1 --enable-libtesseract --enable-libtheora --enable-libvidstab --enable-libvmaf --enable-libvorbis --enable-libvpx --enable-libwebp --enable-libx264 --enable-libx265 --enable-libxml2 --enable-libxvid --enable-lzma --enable-libfontconfig --enable-libfreetype --enable-frei0r --enable-libass --enable-libopencore-amrnb --enable-libopencore-amrwb --enable-libopenjpeg --enable-libspeex --enable-libsoxr --enable-libzmq --enable-libzimg --disable-libjack --disable-indev=jack --enable-videotoolbox --enable-audiotoolbox --enable-neon\n",
      "  libavutil      60.  8.100 / 60.  8.100\n",
      "  libavcodec     62. 11.100 / 62. 11.100\n",
      "  libavformat    62.  3.100 / 62.  3.100\n",
      "  libavdevice    62.  1.100 / 62.  1.100\n",
      "  libavfilter    11.  4.100 / 11.  4.100\n",
      "  libswscale      9.  1.100 /  9.  1.100\n",
      "  libswresample   6.  1.100 /  6.  1.100\n",
      "Input #0, mp3, from '../Audios/Original_files/The Goose and Its Golden Egg | Moral Stories | Animated Stories.mp3':\n",
      "  Metadata:\n",
      "    title           : The Goose and Its Golden Egg | Moral Stories | Animated Stories\n",
      "    artist          : Kids Rhymes\n",
      "    album           : The Goose and Its Golden Egg | Moral Stories | Animated Stories\n",
      "    TOPE            : Kids Rhymes\n",
      "    comment         : \n",
      "    genre           : Music\n",
      "    date            : 2025\n",
      "  Duration: 00:00:41.94, start: 0.025056, bitrate: 101 kb/s\n",
      "  Stream #0:0: Audio: mp3 (mp3float), 44100 Hz, stereo, fltp, 70 kb/s, start 0.025057\n",
      "    Metadata:\n",
      "      encoder         : Lavc59.37\n",
      "  Stream #0:1: Video: png, rgba(pc, gbr/unknown/unknown), 500x500 [SAR 3780:3780 DAR 1:1], 90k tbr, 90k tbn, start 0.025056 (attached pic)\n",
      "    Metadata:\n",
      "      title           : cover\n",
      "      comment         : Cover (front)\n",
      "Stream mapping:\n",
      "  Stream #0:1 -> #0:0 (copy)\n",
      "  Stream #0:0 -> #0:1 (copy)\n",
      "Output #0, mp3, to '../Audios/Splited_files/The Goose and Its Golden Egg | Moral Stories | Animated Stories_part2.mp3':\n",
      "  Metadata:\n",
      "    TIT2            : The Goose and Its Golden Egg | Moral Stories | Animated Stories\n",
      "    TPE1            : Kids Rhymes\n",
      "    TALB            : The Goose and Its Golden Egg | Moral Stories | Animated Stories\n",
      "    TOPE            : Kids Rhymes\n",
      "    comment         : \n",
      "    TCON            : Music\n",
      "    TDRC            : 2025\n",
      "    TSSE            : Lavf62.3.100\n",
      "  Stream #0:0: Video: png, rgba(pc, gbr/unknown/unknown), 500x500 [SAR 3780:3780 DAR 1:1], q=2-31, 90k tbr, 90k tbn (attached pic)\n",
      "    Metadata:\n",
      "      title           : cover\n",
      "      comment         : Cover (front)\n",
      "  Stream #0:1: Audio: mp3, 44100 Hz, stereo, fltp, 70 kb/s\n",
      "    Metadata:\n",
      "      encoder         : Lavc59.37\n",
      "Press [q] to stop, [?] for help\n",
      "[mp3 @ 0xb29038280] No packets were sent for some of the attached pictures.\n",
      "[out#0/mp3 @ 0xb2902dbc0] video:0KiB audio:83KiB subtitle:0KiB other streams:0KiB global headers:0KiB muxing overhead: 0.587380%\n",
      "frame=    0 fps=0.0 q=-1.0 Lsize=      84KiB time=N/A bitrate=N/A speed=N/A elapsed=0:00:00.00    \n"
     ]
    },
    {
     "name": "stdout",
     "output_type": "stream",
     "text": [
      "Rabbit And Crow | One Minute Story | Childenzia English Story.mp3 découpé en 5 extraits\n"
     ]
    },
    {
     "name": "stderr",
     "output_type": "stream",
     "text": [
      "ffmpeg version 8.0.1 Copyright (c) 2000-2025 the FFmpeg developers\n",
      "  built with Apple clang version 17.0.0 (clang-1700.4.4.1)\n",
      "  configuration: --prefix=/opt/homebrew/Cellar/ffmpeg/8.0.1 --enable-shared --enable-pthreads --enable-version3 --cc=clang --host-cflags= --host-ldflags= --enable-ffplay --enable-gnutls --enable-gpl --enable-libaom --enable-libaribb24 --enable-libbluray --enable-libdav1d --enable-libharfbuzz --enable-libjxl --enable-libmp3lame --enable-libopus --enable-librav1e --enable-librist --enable-librubberband --enable-libsnappy --enable-libsrt --enable-libssh --enable-libsvtav1 --enable-libtesseract --enable-libtheora --enable-libvidstab --enable-libvmaf --enable-libvorbis --enable-libvpx --enable-libwebp --enable-libx264 --enable-libx265 --enable-libxml2 --enable-libxvid --enable-lzma --enable-libfontconfig --enable-libfreetype --enable-frei0r --enable-libass --enable-libopencore-amrnb --enable-libopencore-amrwb --enable-libopenjpeg --enable-libspeex --enable-libsoxr --enable-libzmq --enable-libzimg --disable-libjack --disable-indev=jack --enable-videotoolbox --enable-audiotoolbox --enable-neon\n",
      "  libavutil      60.  8.100 / 60.  8.100\n",
      "  libavcodec     62. 11.100 / 62. 11.100\n",
      "  libavformat    62.  3.100 / 62.  3.100\n",
      "  libavdevice    62.  1.100 / 62.  1.100\n",
      "  libavfilter    11.  4.100 / 11.  4.100\n",
      "  libswscale      9.  1.100 /  9.  1.100\n",
      "  libswresample   6.  1.100 /  6.  1.100\n",
      "Input #0, mp3, from '../Audios/Original_files/The Goose and Its Golden Egg | Moral Stories | Animated Stories.mp3':\n",
      "  Metadata:\n",
      "    title           : The Goose and Its Golden Egg | Moral Stories | Animated Stories\n",
      "    artist          : Kids Rhymes\n",
      "    album           : The Goose and Its Golden Egg | Moral Stories | Animated Stories\n",
      "    TOPE            : Kids Rhymes\n",
      "    comment         : \n",
      "    genre           : Music\n",
      "    date            : 2025\n",
      "  Duration: 00:00:41.94, start: 0.025056, bitrate: 101 kb/s\n",
      "  Stream #0:0: Audio: mp3 (mp3float), 44100 Hz, stereo, fltp, 70 kb/s, start 0.025057\n",
      "    Metadata:\n",
      "      encoder         : Lavc59.37\n",
      "  Stream #0:1: Video: png, rgba(pc, gbr/unknown/unknown), 500x500 [SAR 3780:3780 DAR 1:1], 90k tbr, 90k tbn, start 0.025056 (attached pic)\n",
      "    Metadata:\n",
      "      title           : cover\n",
      "      comment         : Cover (front)\n",
      "Stream mapping:\n",
      "  Stream #0:1 -> #0:0 (copy)\n",
      "  Stream #0:0 -> #0:1 (copy)\n",
      "Output #0, mp3, to '../Audios/Splited_files/The Goose and Its Golden Egg | Moral Stories | Animated Stories_part3.mp3':\n",
      "  Metadata:\n",
      "    TIT2            : The Goose and Its Golden Egg | Moral Stories | Animated Stories\n",
      "    TPE1            : Kids Rhymes\n",
      "    TALB            : The Goose and Its Golden Egg | Moral Stories | Animated Stories\n",
      "    TOPE            : Kids Rhymes\n",
      "    comment         : \n",
      "    TCON            : Music\n",
      "    TDRC            : 2025\n",
      "    TSSE            : Lavf62.3.100\n",
      "  Stream #0:0: Video: png, rgba(pc, gbr/unknown/unknown), 500x500 [SAR 3780:3780 DAR 1:1], q=2-31, 90k tbr, 90k tbn (attached pic)\n",
      "    Metadata:\n",
      "      title           : cover\n",
      "      comment         : Cover (front)\n",
      "  Stream #0:1: Audio: mp3, 44100 Hz, stereo, fltp, 70 kb/s\n",
      "    Metadata:\n",
      "      encoder         : Lavc59.37\n",
      "Press [q] to stop, [?] for help\n",
      "[mp3 @ 0xbf1028280] No packets were sent for some of the attached pictures.\n",
      "[out#0/mp3 @ 0xbf0c54480] video:0KiB audio:130KiB subtitle:0KiB other streams:0KiB global headers:0KiB muxing overhead: 0.375095%\n",
      "frame=    0 fps=0.0 q=-1.0 Lsize=     131KiB time=N/A bitrate=N/A speed=N/A elapsed=0:00:00.00    \n",
      "ffmpeg version 8.0.1 Copyright (c) 2000-2025 the FFmpeg developers\n",
      "  built with Apple clang version 17.0.0 (clang-1700.4.4.1)\n",
      "  configuration: --prefix=/opt/homebrew/Cellar/ffmpeg/8.0.1 --enable-shared --enable-pthreads --enable-version3 --cc=clang --host-cflags= --host-ldflags= --enable-ffplay --enable-gnutls --enable-gpl --enable-libaom --enable-libaribb24 --enable-libbluray --enable-libdav1d --enable-libharfbuzz --enable-libjxl --enable-libmp3lame --enable-libopus --enable-librav1e --enable-librist --enable-librubberband --enable-libsnappy --enable-libsrt --enable-libssh --enable-libsvtav1 --enable-libtesseract --enable-libtheora --enable-libvidstab --enable-libvmaf --enable-libvorbis --enable-libvpx --enable-libwebp --enable-libx264 --enable-libx265 --enable-libxml2 --enable-libxvid --enable-lzma --enable-libfontconfig --enable-libfreetype --enable-frei0r --enable-libass --enable-libopencore-amrnb --enable-libopencore-amrwb --enable-libopenjpeg --enable-libspeex --enable-libsoxr --enable-libzmq --enable-libzimg --disable-libjack --disable-indev=jack --enable-videotoolbox --enable-audiotoolbox --enable-neon\n",
      "  libavutil      60.  8.100 / 60.  8.100\n",
      "  libavcodec     62. 11.100 / 62. 11.100\n",
      "  libavformat    62.  3.100 / 62.  3.100\n",
      "  libavdevice    62.  1.100 / 62.  1.100\n",
      "  libavfilter    11.  4.100 / 11.  4.100\n",
      "  libswscale      9.  1.100 /  9.  1.100\n",
      "  libswresample   6.  1.100 /  6.  1.100\n",
      "Input #0, mp3, from '../Audios/Original_files/The Goose and Its Golden Egg | Moral Stories | Animated Stories.mp3':\n",
      "  Metadata:\n",
      "    title           : The Goose and Its Golden Egg | Moral Stories | Animated Stories\n",
      "    artist          : Kids Rhymes\n",
      "    album           : The Goose and Its Golden Egg | Moral Stories | Animated Stories\n",
      "    TOPE            : Kids Rhymes\n",
      "    comment         : \n",
      "    genre           : Music\n",
      "    date            : 2025\n",
      "  Duration: 00:00:41.94, start: 0.025056, bitrate: 101 kb/s\n",
      "  Stream #0:0: Audio: mp3 (mp3float), 44100 Hz, stereo, fltp, 70 kb/s, start 0.025057\n",
      "    Metadata:\n",
      "      encoder         : Lavc59.37\n",
      "  Stream #0:1: Video: png, rgba(pc, gbr/unknown/unknown), 500x500 [SAR 3780:3780 DAR 1:1], 90k tbr, 90k tbn, start 0.025056 (attached pic)\n",
      "    Metadata:\n",
      "      title           : cover\n",
      "      comment         : Cover (front)\n",
      "Stream mapping:\n",
      "  Stream #0:1 -> #0:0 (copy)\n",
      "  Stream #0:0 -> #0:1 (copy)\n",
      "Output #0, mp3, to '../Audios/Splited_files/The Goose and Its Golden Egg | Moral Stories | Animated Stories_part4.mp3':\n",
      "  Metadata:\n",
      "    TIT2            : The Goose and Its Golden Egg | Moral Stories | Animated Stories\n",
      "    TPE1            : Kids Rhymes\n",
      "    TALB            : The Goose and Its Golden Egg | Moral Stories | Animated Stories\n",
      "    TOPE            : Kids Rhymes\n",
      "    comment         : \n",
      "    TCON            : Music\n",
      "    TDRC            : 2025\n",
      "    TSSE            : Lavf62.3.100\n",
      "  Stream #0:0: Video: png, rgba(pc, gbr/unknown/unknown), 500x500 [SAR 3780:3780 DAR 1:1], q=2-31, 90k tbr, 90k tbn (attached pic)\n",
      "    Metadata:\n",
      "      title           : cover\n",
      "      comment         : Cover (front)\n",
      "  Stream #0:1: Audio: mp3, 44100 Hz, stereo, fltp, 70 kb/s\n",
      "    Metadata:\n",
      "      encoder         : Lavc59.37\n",
      "Press [q] to stop, [?] for help\n",
      "[mp3 @ 0x969048280] No packets were sent for some of the attached pictures.\n",
      "[out#0/mp3 @ 0x968c34480] video:0KiB audio:37KiB subtitle:0KiB other streams:0KiB global headers:0KiB muxing overhead: 1.321551%\n",
      "frame=    0 fps=0.0 q=-1.0 Lsize=      38KiB time=N/A bitrate=N/A speed=N/A elapsed=0:00:00.00    \n",
      "ffmpeg version 8.0.1 Copyright (c) 2000-2025 the FFmpeg developers\n",
      "  built with Apple clang version 17.0.0 (clang-1700.4.4.1)\n",
      "  configuration: --prefix=/opt/homebrew/Cellar/ffmpeg/8.0.1 --enable-shared --enable-pthreads --enable-version3 --cc=clang --host-cflags= --host-ldflags= --enable-ffplay --enable-gnutls --enable-gpl --enable-libaom --enable-libaribb24 --enable-libbluray --enable-libdav1d --enable-libharfbuzz --enable-libjxl --enable-libmp3lame --enable-libopus --enable-librav1e --enable-librist --enable-librubberband --enable-libsnappy --enable-libsrt --enable-libssh --enable-libsvtav1 --enable-libtesseract --enable-libtheora --enable-libvidstab --enable-libvmaf --enable-libvorbis --enable-libvpx --enable-libwebp --enable-libx264 --enable-libx265 --enable-libxml2 --enable-libxvid --enable-lzma --enable-libfontconfig --enable-libfreetype --enable-frei0r --enable-libass --enable-libopencore-amrnb --enable-libopencore-amrwb --enable-libopenjpeg --enable-libspeex --enable-libsoxr --enable-libzmq --enable-libzimg --disable-libjack --disable-indev=jack --enable-videotoolbox --enable-audiotoolbox --enable-neon\n",
      "  libavutil      60.  8.100 / 60.  8.100\n",
      "  libavcodec     62. 11.100 / 62. 11.100\n",
      "  libavformat    62.  3.100 / 62.  3.100\n",
      "  libavdevice    62.  1.100 / 62.  1.100\n",
      "  libavfilter    11.  4.100 / 11.  4.100\n",
      "  libswscale      9.  1.100 /  9.  1.100\n",
      "  libswresample   6.  1.100 /  6.  1.100\n",
      "Input #0, mp3, from '../Audios/Original_files/A one minute story|Short Stories|A one minute story in English#Shortstoriesenglish #oneminutestories.mp3':\n",
      "  Metadata:\n",
      "    title           : A one minute story|Short Stories|A one minute story in English#Shortstoriesenglish #oneminutestories\n",
      "    artist          : Sowmya's Creative Library\n",
      "    album           : A one minute story|Short Stories|A one minute story in English#Shortstoriesenglish #oneminutestories\n",
      "    TOPE            : Sowmya's Creative Library\n",
      "    comment         : \n",
      "    genre           : Music\n",
      "    date            : 2025\n",
      "  Duration: 00:01:20.43, start: 0.025056, bitrate: 157 kb/s\n",
      "  Stream #0:0: Audio: mp3 (mp3float), 44100 Hz, stereo, fltp, 139 kb/s, start 0.025057\n",
      "    Metadata:\n",
      "      encoder         : Lavc59.37\n",
      "  Stream #0:1: Video: png, rgba(pc, gbr/unknown/unknown), 500x500 [SAR 3780:3780 DAR 1:1], 90k tbr, 90k tbn, start 0.025056 (attached pic)\n",
      "    Metadata:\n",
      "      title           : cover\n",
      "      comment         : Cover (front)\n",
      "Stream mapping:\n",
      "  Stream #0:1 -> #0:0 (copy)\n",
      "  Stream #0:0 -> #0:1 (copy)\n",
      "Output #0, mp3, to '../Audios/Splited_files/A one minute story|Short Stories|A one minute story in English#Shortstoriesenglish #oneminutestories_part1.mp3':\n",
      "  Metadata:\n",
      "    TIT2            : A one minute story|Short Stories|A one minute story in English#Shortstoriesenglish #oneminutestories\n",
      "    TPE1            : Sowmya's Creative Library\n",
      "    TALB            : A one minute story|Short Stories|A one minute story in English#Shortstoriesenglish #oneminutestories\n",
      "    TOPE            : Sowmya's Creative Library\n",
      "    comment         : \n",
      "    TCON            : Music\n",
      "    TDRC            : 2025\n",
      "    TSSE            : Lavf62.3.100\n",
      "  Stream #0:0: Video: png, rgba(pc, gbr/unknown/unknown), 500x500 [SAR 3780:3780 DAR 1:1], q=2-31, 90k tbr, 90k tbn (attached pic)\n",
      "    Metadata:\n",
      "      title           : cover\n",
      "      comment         : Cover (front)\n",
      "  Stream #0:1: Audio: mp3, 44100 Hz, stereo, fltp, 139 kb/s\n",
      "    Metadata:\n",
      "      encoder         : Lavc59.37\n",
      "Press [q] to stop, [?] for help\n",
      "[out#0/mp3 @ 0xc26c383c0] video:179KiB audio:169KiB subtitle:0KiB other streams:0KiB global headers:0KiB muxing overhead: 0.235577%\n",
      "frame=    1 fps=0.0 q=-1.0 Lsize=     349KiB time=N/A bitrate=N/A speed=N/A elapsed=0:00:00.00    \n"
     ]
    },
    {
     "name": "stdout",
     "output_type": "stream",
     "text": [
      "The Goose and Its Golden Egg | Moral Stories | Animated Stories.mp3 découpé en 4 extraits\n"
     ]
    },
    {
     "name": "stderr",
     "output_type": "stream",
     "text": [
      "ffmpeg version 8.0.1 Copyright (c) 2000-2025 the FFmpeg developers\n",
      "  built with Apple clang version 17.0.0 (clang-1700.4.4.1)\n",
      "  configuration: --prefix=/opt/homebrew/Cellar/ffmpeg/8.0.1 --enable-shared --enable-pthreads --enable-version3 --cc=clang --host-cflags= --host-ldflags= --enable-ffplay --enable-gnutls --enable-gpl --enable-libaom --enable-libaribb24 --enable-libbluray --enable-libdav1d --enable-libharfbuzz --enable-libjxl --enable-libmp3lame --enable-libopus --enable-librav1e --enable-librist --enable-librubberband --enable-libsnappy --enable-libsrt --enable-libssh --enable-libsvtav1 --enable-libtesseract --enable-libtheora --enable-libvidstab --enable-libvmaf --enable-libvorbis --enable-libvpx --enable-libwebp --enable-libx264 --enable-libx265 --enable-libxml2 --enable-libxvid --enable-lzma --enable-libfontconfig --enable-libfreetype --enable-frei0r --enable-libass --enable-libopencore-amrnb --enable-libopencore-amrwb --enable-libopenjpeg --enable-libspeex --enable-libsoxr --enable-libzmq --enable-libzimg --disable-libjack --disable-indev=jack --enable-videotoolbox --enable-audiotoolbox --enable-neon\n",
      "  libavutil      60.  8.100 / 60.  8.100\n",
      "  libavcodec     62. 11.100 / 62. 11.100\n",
      "  libavformat    62.  3.100 / 62.  3.100\n",
      "  libavdevice    62.  1.100 / 62.  1.100\n",
      "  libavfilter    11.  4.100 / 11.  4.100\n",
      "  libswscale      9.  1.100 /  9.  1.100\n",
      "  libswresample   6.  1.100 /  6.  1.100\n",
      "Input #0, mp3, from '../Audios/Original_files/A one minute story|Short Stories|A one minute story in English#Shortstoriesenglish #oneminutestories.mp3':\n",
      "  Metadata:\n",
      "    title           : A one minute story|Short Stories|A one minute story in English#Shortstoriesenglish #oneminutestories\n",
      "    artist          : Sowmya's Creative Library\n",
      "    album           : A one minute story|Short Stories|A one minute story in English#Shortstoriesenglish #oneminutestories\n",
      "    TOPE            : Sowmya's Creative Library\n",
      "    comment         : \n",
      "    genre           : Music\n",
      "    date            : 2025\n",
      "  Duration: 00:01:20.43, start: 0.025056, bitrate: 157 kb/s\n",
      "  Stream #0:0: Audio: mp3 (mp3float), 44100 Hz, stereo, fltp, 139 kb/s, start 0.025057\n",
      "    Metadata:\n",
      "      encoder         : Lavc59.37\n",
      "  Stream #0:1: Video: png, rgba(pc, gbr/unknown/unknown), 500x500 [SAR 3780:3780 DAR 1:1], 90k tbr, 90k tbn, start 0.025056 (attached pic)\n",
      "    Metadata:\n",
      "      title           : cover\n",
      "      comment         : Cover (front)\n",
      "Stream mapping:\n",
      "  Stream #0:1 -> #0:0 (copy)\n",
      "  Stream #0:0 -> #0:1 (copy)\n",
      "Output #0, mp3, to '../Audios/Splited_files/A one minute story|Short Stories|A one minute story in English#Shortstoriesenglish #oneminutestories_part2.mp3':\n",
      "  Metadata:\n",
      "    TIT2            : A one minute story|Short Stories|A one minute story in English#Shortstoriesenglish #oneminutestories\n",
      "    TPE1            : Sowmya's Creative Library\n",
      "    TALB            : A one minute story|Short Stories|A one minute story in English#Shortstoriesenglish #oneminutestories\n",
      "    TOPE            : Sowmya's Creative Library\n",
      "    comment         : \n",
      "    TCON            : Music\n",
      "    TDRC            : 2025\n",
      "    TSSE            : Lavf62.3.100\n",
      "  Stream #0:0: Video: png, rgba(pc, gbr/unknown/unknown), 500x500 [SAR 3780:3780 DAR 1:1], q=2-31, 90k tbr, 90k tbn (attached pic)\n",
      "    Metadata:\n",
      "      title           : cover\n",
      "      comment         : Cover (front)\n",
      "  Stream #0:1: Audio: mp3, 44100 Hz, stereo, fltp, 139 kb/s\n",
      "    Metadata:\n",
      "      encoder         : Lavc59.37\n",
      "Press [q] to stop, [?] for help\n",
      "[mp3 @ 0x807048280] No packets were sent for some of the attached pictures.\n",
      "[out#0/mp3 @ 0x806c443c0] video:0KiB audio:206KiB subtitle:0KiB other streams:0KiB global headers:0KiB muxing overhead: 0.384767%\n",
      "frame=    0 fps=0.0 q=-1.0 Lsize=     207KiB time=N/A bitrate=N/A speed=N/A elapsed=0:00:00.00    \n",
      "ffmpeg version 8.0.1 Copyright (c) 2000-2025 the FFmpeg developers\n",
      "  built with Apple clang version 17.0.0 (clang-1700.4.4.1)\n",
      "  configuration: --prefix=/opt/homebrew/Cellar/ffmpeg/8.0.1 --enable-shared --enable-pthreads --enable-version3 --cc=clang --host-cflags= --host-ldflags= --enable-ffplay --enable-gnutls --enable-gpl --enable-libaom --enable-libaribb24 --enable-libbluray --enable-libdav1d --enable-libharfbuzz --enable-libjxl --enable-libmp3lame --enable-libopus --enable-librav1e --enable-librist --enable-librubberband --enable-libsnappy --enable-libsrt --enable-libssh --enable-libsvtav1 --enable-libtesseract --enable-libtheora --enable-libvidstab --enable-libvmaf --enable-libvorbis --enable-libvpx --enable-libwebp --enable-libx264 --enable-libx265 --enable-libxml2 --enable-libxvid --enable-lzma --enable-libfontconfig --enable-libfreetype --enable-frei0r --enable-libass --enable-libopencore-amrnb --enable-libopencore-amrwb --enable-libopenjpeg --enable-libspeex --enable-libsoxr --enable-libzmq --enable-libzimg --disable-libjack --disable-indev=jack --enable-videotoolbox --enable-audiotoolbox --enable-neon\n",
      "  libavutil      60.  8.100 / 60.  8.100\n",
      "  libavcodec     62. 11.100 / 62. 11.100\n",
      "  libavformat    62.  3.100 / 62.  3.100\n",
      "  libavdevice    62.  1.100 / 62.  1.100\n",
      "  libavfilter    11.  4.100 / 11.  4.100\n",
      "  libswscale      9.  1.100 /  9.  1.100\n",
      "  libswresample   6.  1.100 /  6.  1.100\n",
      "Input #0, mp3, from '../Audios/Original_files/A one minute story|Short Stories|A one minute story in English#Shortstoriesenglish #oneminutestories.mp3':\n",
      "  Metadata:\n",
      "    title           : A one minute story|Short Stories|A one minute story in English#Shortstoriesenglish #oneminutestories\n",
      "    artist          : Sowmya's Creative Library\n",
      "    album           : A one minute story|Short Stories|A one minute story in English#Shortstoriesenglish #oneminutestories\n",
      "    TOPE            : Sowmya's Creative Library\n",
      "    comment         : \n",
      "    genre           : Music\n",
      "    date            : 2025\n",
      "  Duration: 00:01:20.43, start: 0.025056, bitrate: 157 kb/s\n",
      "  Stream #0:0: Audio: mp3 (mp3float), 44100 Hz, stereo, fltp, 139 kb/s, start 0.025057\n",
      "    Metadata:\n",
      "      encoder         : Lavc59.37\n",
      "  Stream #0:1: Video: png, rgba(pc, gbr/unknown/unknown), 500x500 [SAR 3780:3780 DAR 1:1], 90k tbr, 90k tbn, start 0.025056 (attached pic)\n",
      "    Metadata:\n",
      "      title           : cover\n",
      "      comment         : Cover (front)\n",
      "Stream mapping:\n",
      "  Stream #0:1 -> #0:0 (copy)\n",
      "  Stream #0:0 -> #0:1 (copy)\n",
      "Output #0, mp3, to '../Audios/Splited_files/A one minute story|Short Stories|A one minute story in English#Shortstoriesenglish #oneminutestories_part3.mp3':\n",
      "  Metadata:\n",
      "    TIT2            : A one minute story|Short Stories|A one minute story in English#Shortstoriesenglish #oneminutestories\n",
      "    TPE1            : Sowmya's Creative Library\n",
      "    TALB            : A one minute story|Short Stories|A one minute story in English#Shortstoriesenglish #oneminutestories\n",
      "    TOPE            : Sowmya's Creative Library\n",
      "    comment         : \n",
      "    TCON            : Music\n",
      "    TDRC            : 2025\n",
      "    TSSE            : Lavf62.3.100\n",
      "  Stream #0:0: Video: png, rgba(pc, gbr/unknown/unknown), 500x500 [SAR 3780:3780 DAR 1:1], q=2-31, 90k tbr, 90k tbn (attached pic)\n",
      "    Metadata:\n",
      "      title           : cover\n",
      "      comment         : Cover (front)\n",
      "  Stream #0:1: Audio: mp3, 44100 Hz, stereo, fltp, 139 kb/s\n",
      "    Metadata:\n",
      "      encoder         : Lavc59.37\n",
      "Press [q] to stop, [?] for help\n",
      "[mp3 @ 0x77ac54280] No packets were sent for some of the attached pictures.\n",
      "[out#0/mp3 @ 0x77b0583c0] video:0KiB audio:170KiB subtitle:0KiB other streams:0KiB global headers:0KiB muxing overhead: 0.467680%\n",
      "frame=    0 fps=0.0 q=-1.0 Lsize=     170KiB time=N/A bitrate=N/A speed=N/A elapsed=0:00:00.00    \n",
      "ffmpeg version 8.0.1 Copyright (c) 2000-2025 the FFmpeg developers\n",
      "  built with Apple clang version 17.0.0 (clang-1700.4.4.1)\n",
      "  configuration: --prefix=/opt/homebrew/Cellar/ffmpeg/8.0.1 --enable-shared --enable-pthreads --enable-version3 --cc=clang --host-cflags= --host-ldflags= --enable-ffplay --enable-gnutls --enable-gpl --enable-libaom --enable-libaribb24 --enable-libbluray --enable-libdav1d --enable-libharfbuzz --enable-libjxl --enable-libmp3lame --enable-libopus --enable-librav1e --enable-librist --enable-librubberband --enable-libsnappy --enable-libsrt --enable-libssh --enable-libsvtav1 --enable-libtesseract --enable-libtheora --enable-libvidstab --enable-libvmaf --enable-libvorbis --enable-libvpx --enable-libwebp --enable-libx264 --enable-libx265 --enable-libxml2 --enable-libxvid --enable-lzma --enable-libfontconfig --enable-libfreetype --enable-frei0r --enable-libass --enable-libopencore-amrnb --enable-libopencore-amrwb --enable-libopenjpeg --enable-libspeex --enable-libsoxr --enable-libzmq --enable-libzimg --disable-libjack --disable-indev=jack --enable-videotoolbox --enable-audiotoolbox --enable-neon\n",
      "  libavutil      60.  8.100 / 60.  8.100\n",
      "  libavcodec     62. 11.100 / 62. 11.100\n",
      "  libavformat    62.  3.100 / 62.  3.100\n",
      "  libavdevice    62.  1.100 / 62.  1.100\n",
      "  libavfilter    11.  4.100 / 11.  4.100\n",
      "  libswscale      9.  1.100 /  9.  1.100\n",
      "  libswresample   6.  1.100 /  6.  1.100\n",
      "Input #0, mp3, from '../Audios/Original_files/A one minute story|Short Stories|A one minute story in English#Shortstoriesenglish #oneminutestories.mp3':\n",
      "  Metadata:\n",
      "    title           : A one minute story|Short Stories|A one minute story in English#Shortstoriesenglish #oneminutestories\n",
      "    artist          : Sowmya's Creative Library\n",
      "    album           : A one minute story|Short Stories|A one minute story in English#Shortstoriesenglish #oneminutestories\n",
      "    TOPE            : Sowmya's Creative Library\n",
      "    comment         : \n",
      "    genre           : Music\n",
      "    date            : 2025\n",
      "  Duration: 00:01:20.43, start: 0.025056, bitrate: 157 kb/s\n",
      "  Stream #0:0: Audio: mp3 (mp3float), 44100 Hz, stereo, fltp, 139 kb/s, start 0.025057\n",
      "    Metadata:\n",
      "      encoder         : Lavc59.37\n",
      "  Stream #0:1: Video: png, rgba(pc, gbr/unknown/unknown), 500x500 [SAR 3780:3780 DAR 1:1], 90k tbr, 90k tbn, start 0.025056 (attached pic)\n",
      "    Metadata:\n",
      "      title           : cover\n",
      "      comment         : Cover (front)\n",
      "Stream mapping:\n",
      "  Stream #0:1 -> #0:0 (copy)\n",
      "  Stream #0:0 -> #0:1 (copy)\n",
      "Output #0, mp3, to '../Audios/Splited_files/A one minute story|Short Stories|A one minute story in English#Shortstoriesenglish #oneminutestories_part4.mp3':\n",
      "  Metadata:\n",
      "    TIT2            : A one minute story|Short Stories|A one minute story in English#Shortstoriesenglish #oneminutestories\n",
      "    TPE1            : Sowmya's Creative Library\n",
      "    TALB            : A one minute story|Short Stories|A one minute story in English#Shortstoriesenglish #oneminutestories\n",
      "    TOPE            : Sowmya's Creative Library\n",
      "    comment         : \n",
      "    TCON            : Music\n",
      "    TDRC            : 2025\n",
      "    TSSE            : Lavf62.3.100\n",
      "  Stream #0:0: Video: png, rgba(pc, gbr/unknown/unknown), 500x500 [SAR 3780:3780 DAR 1:1], q=2-31, 90k tbr, 90k tbn (attached pic)\n",
      "    Metadata:\n",
      "      title           : cover\n",
      "      comment         : Cover (front)\n",
      "  Stream #0:1: Audio: mp3, 44100 Hz, stereo, fltp, 139 kb/s\n",
      "    Metadata:\n",
      "      encoder         : Lavc59.37\n",
      "Press [q] to stop, [?] for help\n",
      "[mp3 @ 0xabb068280] No packets were sent for some of the attached pictures.\n",
      "[out#0/mp3 @ 0xabac243c0] video:0KiB audio:242KiB subtitle:0KiB other streams:0KiB global headers:0KiB muxing overhead: 0.328313%\n",
      "frame=    0 fps=0.0 q=-1.0 Lsize=     242KiB time=N/A bitrate=N/A speed=N/A elapsed=0:00:00.00    \n",
      "ffmpeg version 8.0.1 Copyright (c) 2000-2025 the FFmpeg developers\n",
      "  built with Apple clang version 17.0.0 (clang-1700.4.4.1)\n",
      "  configuration: --prefix=/opt/homebrew/Cellar/ffmpeg/8.0.1 --enable-shared --enable-pthreads --enable-version3 --cc=clang --host-cflags= --host-ldflags= --enable-ffplay --enable-gnutls --enable-gpl --enable-libaom --enable-libaribb24 --enable-libbluray --enable-libdav1d --enable-libharfbuzz --enable-libjxl --enable-libmp3lame --enable-libopus --enable-librav1e --enable-librist --enable-librubberband --enable-libsnappy --enable-libsrt --enable-libssh --enable-libsvtav1 --enable-libtesseract --enable-libtheora --enable-libvidstab --enable-libvmaf --enable-libvorbis --enable-libvpx --enable-libwebp --enable-libx264 --enable-libx265 --enable-libxml2 --enable-libxvid --enable-lzma --enable-libfontconfig --enable-libfreetype --enable-frei0r --enable-libass --enable-libopencore-amrnb --enable-libopencore-amrwb --enable-libopenjpeg --enable-libspeex --enable-libsoxr --enable-libzmq --enable-libzimg --disable-libjack --disable-indev=jack --enable-videotoolbox --enable-audiotoolbox --enable-neon\n",
      "  libavutil      60.  8.100 / 60.  8.100\n",
      "  libavcodec     62. 11.100 / 62. 11.100\n",
      "  libavformat    62.  3.100 / 62.  3.100\n",
      "  libavdevice    62.  1.100 / 62.  1.100\n",
      "  libavfilter    11.  4.100 / 11.  4.100\n",
      "  libswscale      9.  1.100 /  9.  1.100\n",
      "  libswresample   6.  1.100 /  6.  1.100\n",
      "Input #0, mp3, from '../Audios/Original_files/A one minute story|Short Stories|A one minute story in English#Shortstoriesenglish #oneminutestories.mp3':\n",
      "  Metadata:\n",
      "    title           : A one minute story|Short Stories|A one minute story in English#Shortstoriesenglish #oneminutestories\n",
      "    artist          : Sowmya's Creative Library\n",
      "    album           : A one minute story|Short Stories|A one minute story in English#Shortstoriesenglish #oneminutestories\n",
      "    TOPE            : Sowmya's Creative Library\n",
      "    comment         : \n",
      "    genre           : Music\n",
      "    date            : 2025\n",
      "  Duration: 00:01:20.43, start: 0.025056, bitrate: 157 kb/s\n",
      "  Stream #0:0: Audio: mp3 (mp3float), 44100 Hz, stereo, fltp, 139 kb/s, start 0.025057\n",
      "    Metadata:\n",
      "      encoder         : Lavc59.37\n",
      "  Stream #0:1: Video: png, rgba(pc, gbr/unknown/unknown), 500x500 [SAR 3780:3780 DAR 1:1], 90k tbr, 90k tbn, start 0.025056 (attached pic)\n",
      "    Metadata:\n",
      "      title           : cover\n",
      "      comment         : Cover (front)\n",
      "Stream mapping:\n",
      "  Stream #0:1 -> #0:0 (copy)\n",
      "  Stream #0:0 -> #0:1 (copy)\n",
      "Output #0, mp3, to '../Audios/Splited_files/A one minute story|Short Stories|A one minute story in English#Shortstoriesenglish #oneminutestories_part5.mp3':\n",
      "  Metadata:\n",
      "    TIT2            : A one minute story|Short Stories|A one minute story in English#Shortstoriesenglish #oneminutestories\n",
      "    TPE1            : Sowmya's Creative Library\n",
      "    TALB            : A one minute story|Short Stories|A one minute story in English#Shortstoriesenglish #oneminutestories\n",
      "    TOPE            : Sowmya's Creative Library\n",
      "    comment         : \n",
      "    TCON            : Music\n",
      "    TDRC            : 2025\n",
      "    TSSE            : Lavf62.3.100\n",
      "  Stream #0:0: Video: png, rgba(pc, gbr/unknown/unknown), 500x500 [SAR 3780:3780 DAR 1:1], q=2-31, 90k tbr, 90k tbn (attached pic)\n",
      "    Metadata:\n",
      "      title           : cover\n",
      "      comment         : Cover (front)\n",
      "  Stream #0:1: Audio: mp3, 44100 Hz, stereo, fltp, 139 kb/s\n",
      "    Metadata:\n",
      "      encoder         : Lavc59.37\n",
      "Press [q] to stop, [?] for help\n",
      "[mp3 @ 0xca105c280] No packets were sent for some of the attached pictures.\n",
      "[out#0/mp3 @ 0xca0c4c3c0] video:0KiB audio:256KiB subtitle:0KiB other streams:0KiB global headers:0KiB muxing overhead: 0.310252%\n",
      "frame=    0 fps=0.0 q=-1.0 Lsize=     256KiB time=N/A bitrate=N/A speed=N/A elapsed=0:00:00.00    \n"
     ]
    },
    {
     "name": "stdout",
     "output_type": "stream",
     "text": [
      "A one minute story|Short Stories|A one minute story in English#Shortstoriesenglish #oneminutestories.mp3 découpé en 7 extraits\n"
     ]
    },
    {
     "name": "stderr",
     "output_type": "stream",
     "text": [
      "ffmpeg version 8.0.1 Copyright (c) 2000-2025 the FFmpeg developers\n",
      "  built with Apple clang version 17.0.0 (clang-1700.4.4.1)\n",
      "  configuration: --prefix=/opt/homebrew/Cellar/ffmpeg/8.0.1 --enable-shared --enable-pthreads --enable-version3 --cc=clang --host-cflags= --host-ldflags= --enable-ffplay --enable-gnutls --enable-gpl --enable-libaom --enable-libaribb24 --enable-libbluray --enable-libdav1d --enable-libharfbuzz --enable-libjxl --enable-libmp3lame --enable-libopus --enable-librav1e --enable-librist --enable-librubberband --enable-libsnappy --enable-libsrt --enable-libssh --enable-libsvtav1 --enable-libtesseract --enable-libtheora --enable-libvidstab --enable-libvmaf --enable-libvorbis --enable-libvpx --enable-libwebp --enable-libx264 --enable-libx265 --enable-libxml2 --enable-libxvid --enable-lzma --enable-libfontconfig --enable-libfreetype --enable-frei0r --enable-libass --enable-libopencore-amrnb --enable-libopencore-amrwb --enable-libopenjpeg --enable-libspeex --enable-libsoxr --enable-libzmq --enable-libzimg --disable-libjack --disable-indev=jack --enable-videotoolbox --enable-audiotoolbox --enable-neon\n",
      "  libavutil      60.  8.100 / 60.  8.100\n",
      "  libavcodec     62. 11.100 / 62. 11.100\n",
      "  libavformat    62.  3.100 / 62.  3.100\n",
      "  libavdevice    62.  1.100 / 62.  1.100\n",
      "  libavfilter    11.  4.100 / 11.  4.100\n",
      "  libswscale      9.  1.100 /  9.  1.100\n",
      "  libswresample   6.  1.100 /  6.  1.100\n",
      "Input #0, mp3, from '../Audios/Original_files/A one minute story|Short Stories|A one minute story in English#Shortstoriesenglish #oneminutestories.mp3':\n",
      "  Metadata:\n",
      "    title           : A one minute story|Short Stories|A one minute story in English#Shortstoriesenglish #oneminutestories\n",
      "    artist          : Sowmya's Creative Library\n",
      "    album           : A one minute story|Short Stories|A one minute story in English#Shortstoriesenglish #oneminutestories\n",
      "    TOPE            : Sowmya's Creative Library\n",
      "    comment         : \n",
      "    genre           : Music\n",
      "    date            : 2025\n",
      "  Duration: 00:01:20.43, start: 0.025056, bitrate: 157 kb/s\n",
      "  Stream #0:0: Audio: mp3 (mp3float), 44100 Hz, stereo, fltp, 139 kb/s, start 0.025057\n",
      "    Metadata:\n",
      "      encoder         : Lavc59.37\n",
      "  Stream #0:1: Video: png, rgba(pc, gbr/unknown/unknown), 500x500 [SAR 3780:3780 DAR 1:1], 90k tbr, 90k tbn, start 0.025056 (attached pic)\n",
      "    Metadata:\n",
      "      title           : cover\n",
      "      comment         : Cover (front)\n",
      "Stream mapping:\n",
      "  Stream #0:1 -> #0:0 (copy)\n",
      "  Stream #0:0 -> #0:1 (copy)\n",
      "Output #0, mp3, to '../Audios/Splited_files/A one minute story|Short Stories|A one minute story in English#Shortstoriesenglish #oneminutestories_part6.mp3':\n",
      "  Metadata:\n",
      "    TIT2            : A one minute story|Short Stories|A one minute story in English#Shortstoriesenglish #oneminutestories\n",
      "    TPE1            : Sowmya's Creative Library\n",
      "    TALB            : A one minute story|Short Stories|A one minute story in English#Shortstoriesenglish #oneminutestories\n",
      "    TOPE            : Sowmya's Creative Library\n",
      "    comment         : \n",
      "    TCON            : Music\n",
      "    TDRC            : 2025\n",
      "    TSSE            : Lavf62.3.100\n",
      "  Stream #0:0: Video: png, rgba(pc, gbr/unknown/unknown), 500x500 [SAR 3780:3780 DAR 1:1], q=2-31, 90k tbr, 90k tbn (attached pic)\n",
      "    Metadata:\n",
      "      title           : cover\n",
      "      comment         : Cover (front)\n",
      "  Stream #0:1: Audio: mp3, 44100 Hz, stereo, fltp, 139 kb/s\n",
      "    Metadata:\n",
      "      encoder         : Lavc59.37\n",
      "Press [q] to stop, [?] for help\n",
      "[mp3 @ 0x8c5044280] No packets were sent for some of the attached pictures.\n",
      "[out#0/mp3 @ 0x8c5008840] video:0KiB audio:221KiB subtitle:0KiB other streams:0KiB global headers:0KiB muxing overhead: 0.358235%\n",
      "frame=    0 fps=0.0 q=-1.0 Lsize=     222KiB time=N/A bitrate=N/A speed=N/A elapsed=0:00:00.00    \n",
      "ffmpeg version 8.0.1 Copyright (c) 2000-2025 the FFmpeg developers\n",
      "  built with Apple clang version 17.0.0 (clang-1700.4.4.1)\n",
      "  configuration: --prefix=/opt/homebrew/Cellar/ffmpeg/8.0.1 --enable-shared --enable-pthreads --enable-version3 --cc=clang --host-cflags= --host-ldflags= --enable-ffplay --enable-gnutls --enable-gpl --enable-libaom --enable-libaribb24 --enable-libbluray --enable-libdav1d --enable-libharfbuzz --enable-libjxl --enable-libmp3lame --enable-libopus --enable-librav1e --enable-librist --enable-librubberband --enable-libsnappy --enable-libsrt --enable-libssh --enable-libsvtav1 --enable-libtesseract --enable-libtheora --enable-libvidstab --enable-libvmaf --enable-libvorbis --enable-libvpx --enable-libwebp --enable-libx264 --enable-libx265 --enable-libxml2 --enable-libxvid --enable-lzma --enable-libfontconfig --enable-libfreetype --enable-frei0r --enable-libass --enable-libopencore-amrnb --enable-libopencore-amrwb --enable-libopenjpeg --enable-libspeex --enable-libsoxr --enable-libzmq --enable-libzimg --disable-libjack --disable-indev=jack --enable-videotoolbox --enable-audiotoolbox --enable-neon\n",
      "  libavutil      60.  8.100 / 60.  8.100\n",
      "  libavcodec     62. 11.100 / 62. 11.100\n",
      "  libavformat    62.  3.100 / 62.  3.100\n",
      "  libavdevice    62.  1.100 / 62.  1.100\n",
      "  libavfilter    11.  4.100 / 11.  4.100\n",
      "  libswscale      9.  1.100 /  9.  1.100\n",
      "  libswresample   6.  1.100 /  6.  1.100\n",
      "Input #0, mp3, from '../Audios/Original_files/A one minute story|Short Stories|A one minute story in English#Shortstoriesenglish #oneminutestories.mp3':\n",
      "  Metadata:\n",
      "    title           : A one minute story|Short Stories|A one minute story in English#Shortstoriesenglish #oneminutestories\n",
      "    artist          : Sowmya's Creative Library\n",
      "    album           : A one minute story|Short Stories|A one minute story in English#Shortstoriesenglish #oneminutestories\n",
      "    TOPE            : Sowmya's Creative Library\n",
      "    comment         : \n",
      "    genre           : Music\n",
      "    date            : 2025\n",
      "  Duration: 00:01:20.43, start: 0.025056, bitrate: 157 kb/s\n",
      "  Stream #0:0: Audio: mp3 (mp3float), 44100 Hz, stereo, fltp, 139 kb/s, start 0.025057\n",
      "    Metadata:\n",
      "      encoder         : Lavc59.37\n",
      "  Stream #0:1: Video: png, rgba(pc, gbr/unknown/unknown), 500x500 [SAR 3780:3780 DAR 1:1], 90k tbr, 90k tbn, start 0.025056 (attached pic)\n",
      "    Metadata:\n",
      "      title           : cover\n",
      "      comment         : Cover (front)\n",
      "Stream mapping:\n",
      "  Stream #0:1 -> #0:0 (copy)\n",
      "  Stream #0:0 -> #0:1 (copy)\n",
      "Output #0, mp3, to '../Audios/Splited_files/A one minute story|Short Stories|A one minute story in English#Shortstoriesenglish #oneminutestories_part7.mp3':\n",
      "  Metadata:\n",
      "    TIT2            : A one minute story|Short Stories|A one minute story in English#Shortstoriesenglish #oneminutestories\n",
      "    TPE1            : Sowmya's Creative Library\n",
      "    TALB            : A one minute story|Short Stories|A one minute story in English#Shortstoriesenglish #oneminutestories\n",
      "    TOPE            : Sowmya's Creative Library\n",
      "    comment         : \n",
      "    TCON            : Music\n",
      "    TDRC            : 2025\n",
      "    TSSE            : Lavf62.3.100\n",
      "  Stream #0:0: Video: png, rgba(pc, gbr/unknown/unknown), 500x500 [SAR 3780:3780 DAR 1:1], q=2-31, 90k tbr, 90k tbn (attached pic)\n",
      "    Metadata:\n",
      "      title           : cover\n",
      "      comment         : Cover (front)\n",
      "  Stream #0:1: Audio: mp3, 44100 Hz, stereo, fltp, 139 kb/s\n",
      "    Metadata:\n",
      "      encoder         : Lavc59.37\n",
      "Press [q] to stop, [?] for help\n",
      "[mp3 @ 0xac5048280] No packets were sent for some of the attached pictures.\n",
      "[out#0/mp3 @ 0xac4c29200] video:0KiB audio:106KiB subtitle:0KiB other streams:0KiB global headers:0KiB muxing overhead: 0.749243%\n",
      "frame=    0 fps=0.0 q=-1.0 Lsize=     107KiB time=N/A bitrate=N/A speed=N/A elapsed=0:00:00.00    \n"
     ]
    }
   ],
   "source": [
    "import os\n",
    "import subprocess\n",
    "import random\n",
    "\n",
    "# Dossier contenant les fichiers audio\n",
    "input_folder = \"../Audios/Original_files\"\n",
    "# Dossier où sauvegarder les extraits\n",
    "output_folder = \"../Audios/Splited_files\"\n",
    "\n",
    "clip_min_sec = 10\n",
    "clip_max_sec = 15\n",
    "\n",
    "for filename in os.listdir(input_folder):\n",
    "    if filename.endswith(\".mp3\"):\n",
    "        input_path = os.path.join(input_folder, filename)\n",
    "        \n",
    "        # Obtenir la durée totale en secondes\n",
    "        result = subprocess.run(\n",
    "            [\"ffprobe\", \"-i\", input_path, \"-show_entries\", \"format=duration\",\n",
    "             \"-v\", \"quiet\", \"-of\", \"csv=p=0\"],\n",
    "            capture_output=True, text=True\n",
    "        )\n",
    "        total_duration = float(result.stdout.strip())\n",
    "        \n",
    "        start = 0\n",
    "        part = 1\n",
    "        while start < total_duration:\n",
    "            clip_duration = random.randint(clip_min_sec, clip_max_sec)\n",
    "            end = min(start + clip_duration, total_duration)\n",
    "            \n",
    "            output_path = os.path.join(output_folder, f\"{os.path.splitext(filename)[0]}_part{part}.mp3\")\n",
    "            \n",
    "            subprocess.run([\n",
    "                \"ffmpeg\", \"-y\", \"-i\", input_path,\n",
    "                \"-ss\", str(start), \"-to\", str(end),\n",
    "                \"-c\", \"copy\", output_path\n",
    "            ])\n",
    "            \n",
    "            start += clip_duration\n",
    "            part += 1\n",
    "\n",
    "        print(f\"{filename} découpé en {part-1} extraits\")\n",
    "\n",
    "\n"
   ]
  }
 ],
 "metadata": {
  "kernelspec": {
   "display_name": "Python 3",
   "language": "python",
   "name": "python3"
  },
  "language_info": {
   "codemirror_mode": {
    "name": "ipython",
    "version": 3
   },
   "file_extension": ".py",
   "mimetype": "text/x-python",
   "name": "python",
   "nbconvert_exporter": "python",
   "pygments_lexer": "ipython3",
   "version": "3.13.7"
  }
 },
 "nbformat": 4,
 "nbformat_minor": 5
}
